REM DIRINDEX 1\3,1\2\4,1\2\5,1\2\6
REM DIRNAME folder01,folder02,folder03,folder04,folder05,folder06
TITLE ""
FILE "139.mp3" MP3
  TRACK 01 AUDIO
    TITLE "0:"
    INDEX 01 00:00:00
  TRACK 02 AUDIO
    TITLE "4:cjc137_5965"
    INDEX 01 00:00:03
  TRACK 03 AUDIO
    TITLE "0:"
    INDEX 01 00:01:40
  TRACK 04 AUDIO
    TITLE "6:cjc137_5966"
    INDEX 01 00:01:50
  TRACK 05 AUDIO
    TITLE "0:"
    INDEX 01 00:02:63
  TRACK 06 AUDIO
    TITLE "5:cjc137_5967"
    INDEX 01 00:02:71
  TRACK 07 AUDIO
    TITLE "0:"
    INDEX 01 00:04:31
  TRACK 08 AUDIO
    TITLE "4:cjc137_5968"
    INDEX 01 00:05:46
  TRACK 09 AUDIO
    TITLE "0:"
    INDEX 01 00:06:61
  TRACK 10 AUDIO
    TITLE "6:cjc137_5969"
    INDEX 01 00:06:65
  TRACK 11 AUDIO
    TITLE "0:"
    INDEX 01 00:08:01
  TRACK 12 AUDIO
    TITLE "5:cjc137_5970"
    INDEX 01 00:08:07
  TRACK 13 AUDIO
    TITLE "0:"
    INDEX 01 00:09:22
  TRACK 14 AUDIO
    TITLE "4:cjc137_5971"
    INDEX 01 00:10:27
  TRACK 15 AUDIO
    TITLE "0:"
    INDEX 01 00:11:42
  TRACK 16 AUDIO
    TITLE "6:cjc137_5972"
    INDEX 01 00:11:48
  TRACK 17 AUDIO
    TITLE "0:"
    INDEX 01 00:13:04
  TRACK 18 AUDIO
    TITLE "5:cjc137_5973"
    INDEX 01 00:13:10
  TRACK 19 AUDIO
    TITLE "0:"
    INDEX 01 00:14:23
  TRACK 20 AUDIO
    TITLE "4:cjc137_5974"
    INDEX 01 00:15:30
  TRACK 21 AUDIO
    TITLE "0:"
    INDEX 01 00:16:59
  TRACK 22 AUDIO
    TITLE "6:cjc137_5975"
    INDEX 01 00:16:67
  TRACK 23 AUDIO
    TITLE "0:"
    INDEX 01 00:17:59
  TRACK 24 AUDIO
    TITLE "5:cjc137_5976"
    INDEX 01 00:17:67
  TRACK 25 AUDIO
    TITLE "0:"
    INDEX 01 00:19:20
  TRACK 26 AUDIO
    TITLE "4:cjc137_5977"
    INDEX 01 00:20:30
  TRACK 27 AUDIO
    TITLE "0:"
    INDEX 01 00:21:47
  TRACK 28 AUDIO
    TITLE "6:cjc137_5978"
    INDEX 01 00:21:57
  TRACK 29 AUDIO
    TITLE "0:"
    INDEX 01 00:23:08
  TRACK 30 AUDIO
    TITLE "5:cjc137_5979"
    INDEX 01 00:23:14
  TRACK 31 AUDIO
    TITLE "0:"
    INDEX 01 00:24:35
  TRACK 32 AUDIO
    TITLE "4:cjc137_5980"
    INDEX 01 00:25:43
  TRACK 33 AUDIO
    TITLE "0:"
    INDEX 01 00:26:73
  TRACK 34 AUDIO
    TITLE "6:cjc137_5981"
    INDEX 01 00:27:04
  TRACK 35 AUDIO
    TITLE "0:"
    INDEX 01 00:28:19
  TRACK 36 AUDIO
    TITLE "5:cjc137_5982"
    INDEX 01 00:28:23
  TRACK 37 AUDIO
    TITLE "0:"
    INDEX 01 00:29:54
  TRACK 38 AUDIO
    TITLE "4:cjc137_5983"
    INDEX 01 00:30:61
  TRACK 39 AUDIO
    TITLE "0:"
    INDEX 01 00:31:61
  TRACK 40 AUDIO
    TITLE "6:cjc137_5984"
    INDEX 01 00:31:69
  TRACK 41 AUDIO
    TITLE "0:"
    INDEX 01 00:33:11
  TRACK 42 AUDIO
    TITLE "5:cjc137_5985"
    INDEX 01 00:33:17
  TRACK 43 AUDIO
    TITLE "0:"
    INDEX 01 00:34:18
  TRACK 44 AUDIO
    TITLE "4:cjc137_5986"
    INDEX 01 00:35:27
  TRACK 45 AUDIO
    TITLE "0:"
    INDEX 01 00:36:46
  TRACK 46 AUDIO
    TITLE "6:cjc137_5987"
    INDEX 01 00:36:52
  TRACK 47 AUDIO
    TITLE "0:"
    INDEX 01 00:38:26
  TRACK 48 AUDIO
    TITLE "5:cjc137_5988"
    INDEX 01 00:38:33
  TRACK 49 AUDIO
    TITLE "0:"
    INDEX 01 00:39:52
  TRACK 50 AUDIO
    TITLE "4:cjc137_5989"
    INDEX 01 00:40:60
  TRACK 51 AUDIO
    TITLE "0:"
    INDEX 01 00:41:73
  TRACK 52 AUDIO
    TITLE "6:cjc137_5990"
    INDEX 01 00:42:04
  TRACK 53 AUDIO
    TITLE "0:"
    INDEX 01 00:43:27
  TRACK 54 AUDIO
    TITLE "5:cjc137_5991"
    INDEX 01 00:43:35
  TRACK 55 AUDIO
    TITLE "0:"
    INDEX 01 00:44:46
  TRACK 56 AUDIO
    TITLE "4:cjc137_5992"
    INDEX 01 00:45:55
  TRACK 57 AUDIO
    TITLE "0:"
    INDEX 01 00:46:70
  TRACK 58 AUDIO
    TITLE "6:cjc137_5993"
    INDEX 01 00:47:11
  TRACK 59 AUDIO
    TITLE "0:"
    INDEX 01 00:48:36
  TRACK 60 AUDIO
    TITLE "5:cjc137_5994"
    INDEX 01 00:48:44
  TRACK 61 AUDIO
    TITLE "0:"
    INDEX 01 00:49:57
  TRACK 62 AUDIO
    TITLE "4:cjc137_5995"
    INDEX 01 00:51:03
  TRACK 63 AUDIO
    TITLE "0:"
    INDEX 01 00:52:22
  TRACK 64 AUDIO
    TITLE "6:cjc137_5996"
    INDEX 01 00:52:32
  TRACK 65 AUDIO
    TITLE "0:"
    INDEX 01 00:53:58
  TRACK 66 AUDIO
    TITLE "5:cjc137_5997"
    INDEX 01 00:53:64
  TRACK 67 AUDIO
    TITLE "0:"
    INDEX 01 00:55:12
  TRACK 68 AUDIO
    TITLE "4:cjc137_5998"
    INDEX 01 00:56:20
  TRACK 69 AUDIO
    TITLE "0:"
    INDEX 01 00:57:29
  TRACK 70 AUDIO
    TITLE "6:cjc137_5999"
    INDEX 01 00:57:37
  TRACK 71 AUDIO
    TITLE "0:"
    INDEX 01 00:58:20
  TRACK 72 AUDIO
    TITLE "5:cjc137_6000"
    INDEX 01 00:58:28
  TRACK 73 AUDIO
    TITLE "0:"
    INDEX 01 00:59:34
  TRACK 74 AUDIO
    TITLE "4:cjc137_6001"
    INDEX 01 01:00:45
  TRACK 75 AUDIO
    TITLE "0:"
    INDEX 01 01:02:01
  TRACK 76 AUDIO
    TITLE "6:cjc137_6002"
    INDEX 01 01:02:10
  TRACK 77 AUDIO
    TITLE "0:"
    INDEX 01 01:03:45
  TRACK 78 AUDIO
    TITLE "5:cjc137_6003"
    INDEX 01 01:03:51
  TRACK 79 AUDIO
    TITLE "0:"
    INDEX 01 01:05:07
  TRACK 80 AUDIO
    TITLE "4:cjc137_6004"
    INDEX 01 01:06:20
  TRACK 81 AUDIO
    TITLE "0:"
    INDEX 01 01:07:57
  TRACK 82 AUDIO
    TITLE "6:cjc137_6005"
    INDEX 01 01:07:68
  TRACK 83 AUDIO
    TITLE "0:"
    INDEX 01 01:09:24
  TRACK 84 AUDIO
    TITLE "5:cjc137_6006"
    INDEX 01 01:09:30
  TRACK 85 AUDIO
    TITLE "0:"
    INDEX 01 01:10:67
  TRACK 86 AUDIO
    TITLE "4:cjc137_6007"
    INDEX 01 01:12:05
  TRACK 87 AUDIO
    TITLE "0:"
    INDEX 01 01:13:20
  TRACK 88 AUDIO
    TITLE "6:cjc137_6008"
    INDEX 01 01:13:32
  TRACK 89 AUDIO
    TITLE "0:"
    INDEX 01 01:14:33
  TRACK 90 AUDIO
    TITLE "5:cjc137_6009"
    INDEX 01 01:14:37
  TRACK 91 AUDIO
    TITLE "0:"
    INDEX 01 01:15:52
  TRACK 92 AUDIO
    TITLE "4:cjc137_6010"
    INDEX 01 01:16:63
  TRACK 93 AUDIO
    TITLE "0:"
    INDEX 01 01:18:07
  TRACK 94 AUDIO
    TITLE "6:cjc137_6011"
    INDEX 01 01:18:21
  TRACK 95 AUDIO
    TITLE "0:"
    INDEX 01 01:19:44
  TRACK 96 AUDIO
    TITLE "5:cjc137_6012"
    INDEX 01 01:19:48
  TRACK 97 AUDIO
    TITLE "0:"
    INDEX 01 01:20:69
  TRACK 98 AUDIO
    TITLE "4:cjc137_6013"
    INDEX 01 01:22:07
  TRACK 99 AUDIO
    TITLE "0:"
    INDEX 01 01:23:32
  TRACK 100 AUDIO
    TITLE "6:cjc137_6014"
    INDEX 01 01:23:40
  TRACK 101 AUDIO
    TITLE "0:"
    INDEX 01 01:24:59
  TRACK 102 AUDIO
    TITLE "5:cjc137_6015"
    INDEX 01 01:24:67
  TRACK 103 AUDIO
    TITLE "0:"
    INDEX 01 01:26:15
  TRACK 104 AUDIO
    TITLE "4:cjc137_6016"
    INDEX 01 01:27:26
  TRACK 105 AUDIO
    TITLE "0:"
    INDEX 01 01:28:31
  TRACK 106 AUDIO
    TITLE "6:cjc137_6017"
    INDEX 01 01:28:39
  TRACK 107 AUDIO
    TITLE "0:"
    INDEX 01 01:29:58
  TRACK 108 AUDIO
    TITLE "5:cjc137_6018"
    INDEX 01 01:29:62
  TRACK 109 AUDIO
    TITLE "0:"
    INDEX 01 01:30:67
  TRACK 110 AUDIO
    TITLE "4:cjc137_6019"
    INDEX 01 01:32:02
  TRACK 111 AUDIO
    TITLE "0:"
    INDEX 01 01:33:11
  TRACK 112 AUDIO
    TITLE "6:cjc137_6020"
    INDEX 01 01:33:19
  TRACK 113 AUDIO
    TITLE "0:"
    INDEX 01 01:34:38
  TRACK 114 AUDIO
    TITLE "5:cjc137_6021"
    INDEX 01 01:34:50
  TRACK 115 AUDIO
    TITLE "0:"
    INDEX 01 01:35:59
  TRACK 116 AUDIO
    TITLE "4:cjc137_6022"
    INDEX 01 01:36:68
  TRACK 117 AUDIO
    TITLE "0:"
    INDEX 01 01:38:16
  TRACK 118 AUDIO
    TITLE "6:cjc137_6023"
    INDEX 01 01:38:26
  TRACK 119 AUDIO
    TITLE "0:"
    INDEX 01 01:39:72
  TRACK 120 AUDIO
    TITLE "5:cjc137_6024"
    INDEX 01 01:40:05
  TRACK 121 AUDIO
    TITLE "0:"
    INDEX 01 01:41:26
